<?xml version="1.0" standalone="no"?>
<!DOCTYPE svg PUBLIC "-//W3C//DTD SVG 20010904//EN"
 "http://www.w3.org/TR/2001/REC-SVG-20010904/DTD/svg10.dtd">
<svg version="1.0" xmlns="http://www.w3.org/2000/svg"
 width="1024.000000pt" height="1024.000000pt" viewBox="0 0 1024.000000 1024.000000"
 preserveAspectRatio="xMidYMid meet">

<g transform="translate(0.000000,1024.000000) scale(0.100000,-0.100000)"
fill="#000000" stroke="none">
<path d="M8327 10219 c7 -7 15 -10 18 -7 3 3 -2 9 -12 12 -14 6 -15 5 -6 -5z"/>
<path d="M7596 10205 c-11 -8 -15 -15 -9 -15 6 0 16 7 23 15 16 19 11 19 -14
0z"/>
<path d="M306 10183 c-6 -14 -5 -15 5 -6 7 7 10 15 7 18 -3 3 -9 -2 -12 -12z"/>
<path d="M7945 10190 c-3 -5 -1 -10 4 -10 6 0 11 5 11 10 0 6 -2 10 -4 10 -3
0 -8 -4 -11 -10z"/>
<path d="M8484 10169 c-3 -6 -2 -15 3 -20 5 -5 9 -1 9 11 0 23 -2 24 -12 9z"/>
<path d="M745 10160 c-3 -6 1 -7 9 -4 18 7 21 14 7 14 -6 0 -13 -4 -16 -10z"/>
<path d="M5330 10164 c0 -4 16 -31 36 -61 78 -118 136 -291 150 -453 l7 -84
-47 41 c-135 119 -429 213 -760 244 -176 16 -534 6 -681 -20 -260 -45 -561
-144 -721 -237 l-41 -24 -104 24 c-57 14 -151 32 -209 41 -145 22 -460 31
-584 16 -109 -13 -186 -29 -186 -40 0 -4 60 -35 133 -69 141 -67 456 -242 457
-254 0 -5 -6 -8 -14 -8 -7 0 -66 -27 -129 -59 -567 -290 -1030 -867 -1188
-1479 -46 -178 -61 -352 -31 -352 4 0 19 22 33 48 60 107 300 371 540 593
l104 96 -33 -101 c-43 -131 -87 -314 -108 -446 -25 -161 -30 -486 -10 -649 33
-271 98 -502 131 -469 3 2 29 72 58 154 60 166 135 336 204 463 l46 85 22
-110 c31 -148 97 -322 165 -430 11 -17 9 -30 -8 -77 -50 -134 -48 -329 4 -487
76 -227 264 -430 448 -485 35 -11 42 -17 57 -63 81 -237 302 -468 615 -642 70
-39 343 -168 387 -183 4 -1 26 -65 48 -142 29 -102 38 -150 34 -176 -6 -36 -7
-37 -65 -43 -41 -5 -78 -2 -122 10 -87 22 -131 14 -256 -50 -97 -50 -177 -81
-627 -252 -705 -266 -841 -323 -967 -407 -102 -68 -210 -179 -284 -293 -84
-128 -263 -505 -454 -954 -95 -223 -206 -484 -247 -580 -125 -290 -153 -361
-179 -449 -38 -133 -38 -135 61 -216 47 -39 121 -92 166 -119 73 -44 80 -51
75 -75 -3 -14 -15 -105 -26 -201 -11 -96 -34 -281 -50 -410 -16 -129 -32 -256
-35 -283 -5 -42 -3 -47 13 -47 16 0 21 9 25 48 3 26 27 238 53 472 26 234 48
426 50 428 1 2 32 -15 68 -37 36 -23 101 -58 143 -80 166 -83 578 -208 721
-218 l82 -6 0 -303 0 -304 2519 0 2518 0 6 78 c4 42 9 146 13 230 l7 153 35
-3 35 -3 -2 -108 c-3 -175 9 -347 25 -347 11 0 14 43 14 228 l0 229 98 6 c276
17 694 138 993 287 l156 78 6 -127 c4 -69 10 -255 13 -414 7 -270 8 -287 26
-287 16 0 18 9 18 88 0 82 -12 383 -25 642 l-6 115 79 37 c80 37 167 106 190
150 11 21 10 36 -7 104 -35 136 -426 1373 -551 1745 -146 431 -204 533 -397
690 -212 174 -419 261 -1363 574 -290 96 -435 150 -483 177 -89 52 -138 68
-205 68 -31 0 -82 7 -113 16 -62 17 -59 13 -74 105 -6 34 -4 38 68 102 77 68
87 75 87 56 0 -9 110 -188 130 -212 10 -11 175 320 240 480 l54 133 17 -44
c34 -91 171 -300 192 -293 6 2 23 76 38 168 30 178 54 283 127 543 l47 168 70
59 c149 123 266 289 326 460 24 71 28 76 34 52 3 -16 26 -70 50 -120 32 -69
48 -91 59 -87 42 16 126 534 126 775 l0 76 108 -107 c59 -58 139 -129 177
-158 85 -63 185 -118 185 -101 0 6 -18 46 -41 88 -89 166 -157 376 -198 611
-12 63 -34 239 -51 390 -61 550 -99 707 -242 995 -119 240 -279 456 -489 661
-231 225 -444 356 -667 409 -89 21 -244 16 -337 -10 -107 -31 -99 -33 -113 32
-7 32 -34 100 -58 151 -36 75 -62 111 -126 178 -84 87 -181 158 -256 187 -47
19 -52 20 -52 11z m-1111 -1391 c-4 -27 -11 -111 -15 -188 -18 -370 71 -816
237 -1193 46 -104 126 -248 164 -297 16 -20 16 -20 31 -1 8 11 14 26 14 34 0
23 118 466 167 627 92 302 200 582 338 870 l57 120 24 -84 c34 -116 88 -257
145 -380 27 -57 48 -105 47 -106 -2 -1 -23 -7 -47 -14 -84 -24 -156 -60 -143
-73 8 -8 28 -4 74 15 35 14 80 28 99 32 l36 7 53 -94 c66 -116 138 -224 205
-308 l52 -65 -111 0 c-106 0 -115 -2 -178 -33 -85 -42 -157 -125 -183 -211 -6
-21 2 -17 49 26 115 102 242 139 384 111 123 -25 202 -67 297 -162 98 -97 154
-189 191 -311 24 -81 27 -106 27 -245 1 -142 -1 -162 -26 -235 -28 -84 -29
-100 -5 -63 69 108 101 394 63 570 -42 199 -161 370 -327 473 l-65 40 -7 195
c-4 107 -10 213 -13 236 l-6 43 47 -14 c92 -28 95 -31 160 -171 120 -256 249
-477 436 -744 l101 -144 -6 -81 c-14 -178 -36 -410 -56 -584 -22 -202 -19
-223 27 -175 50 54 170 209 283 367 62 86 121 162 131 167 77 41 175 -42 232
-195 32 -85 31 -249 -1 -355 -83 -273 -311 -529 -540 -607 -70 -24 -169 -30
-202 -13 -10 6 -19 20 -19 30 0 32 -19 23 -35 -17 -54 -129 -219 -332 -390
-480 -233 -201 -549 -379 -851 -479 -319 -105 -522 -111 -768 -24 -120 43
-551 231 -654 285 -263 140 -465 315 -573 496 -91 153 -109 235 -245 1104 -52
335 -52 337 -15 488 65 269 178 572 311 837 42 82 67 120 87 131 15 9 59 35
96 58 104 64 97 67 97 -40 0 -52 7 -137 15 -189 8 -52 17 -111 20 -130 5 -34
3 -36 -51 -70 -134 -83 -261 -275 -300 -455 -23 -102 -23 -301 -1 -403 15 -69
63 -190 71 -181 2 2 -5 38 -16 79 -26 98 -27 299 -3 415 35 171 161 371 285
453 87 59 183 85 285 80 99 -6 163 -36 247 -116 32 -30 58 -50 58 -43 0 31
-55 123 -94 159 -59 55 -113 80 -191 91 -62 9 -183 0 -208 -16 -7 -4 -8 0 -3
13 5 10 18 48 31 84 34 97 82 214 128 314 l41 89 76 -7 c41 -3 110 -15 153
-25 42 -10 80 -15 82 -10 11 17 -111 51 -202 56 -53 3 -93 10 -93 16 0 12 81
164 158 297 50 87 231 370 237 370 1 0 -2 -21 -6 -47z m1738 -635 l21 -46 -61
23 -62 23 -6 58 c-4 33 -9 106 -13 164 l-6 105 53 -140 c30 -77 63 -161 74
-187z m-2447 142 c-5 -36 -10 -97 -10 -137 0 -62 -3 -73 -19 -78 -10 -3 -55
-28 -100 -54 -45 -27 -81 -48 -81 -46 0 4 167 304 198 357 9 15 17 26 19 25 1
-2 -2 -32 -7 -67z m-752 -1683 c22 -35 65 -90 95 -124 45 -50 56 -69 61 -109
4 -27 10 -65 13 -84 5 -34 4 -34 -40 26 -95 128 -148 137 -192 31 -18 -42 -19
-75 -1 -35 16 37 53 78 70 78 23 0 61 -36 119 -112 l56 -73 30 -175 c17 -96
39 -222 51 -280 29 -150 30 -144 -32 -119 -131 51 -263 185 -343 344 -66 134
-80 195 -80 360 0 134 1 143 29 203 26 55 93 132 116 132 4 0 26 -28 48 -63z
m3037 -1773 c-12 -117 -7 -332 10 -390 16 -54 57 -107 120 -151 l30 -22 -71
-70 c-222 -217 -642 -383 -1009 -398 -230 -9 -510 48 -650 132 -97 59 -164
115 -206 173 l-39 55 47 27 c27 15 57 37 67 49 24 26 40 27 26 2 -16 -30 6
-36 25 -7 34 52 46 118 47 262 l1 141 61 -27 c89 -40 236 -88 308 -100 256
-41 586 40 978 241 74 38 162 87 195 108 33 22 62 40 64 40 2 1 0 -29 -4 -65z
m-201 -1856 c-4 -7 -66 -79 -136 -161 -70 -82 -128 -156 -128 -164 0 -8 53
-76 118 -151 64 -76 123 -145 131 -155 13 -16 7 -17 -76 -17 l-90 0 -137 162
c-75 88 -136 165 -136 169 0 11 277 316 293 322 7 3 47 6 90 6 59 1 76 -2 71
-11z m579 -10 c13 -13 55 -59 93 -103 38 -44 90 -103 116 -132 26 -28 48 -58
48 -66 0 -21 -269 -337 -288 -338 -40 -2 -157 3 -161 6 -2 2 39 52 90 110 145
163 179 206 179 219 0 7 -42 60 -92 117 -51 58 -113 128 -136 157 l-44 52 86
0 c74 0 88 -3 109 -22z"/>
<path d="M5579 7371 c-71 -23 -133 -77 -184 -161 -48 -79 -73 -163 -84 -283
-29 -300 73 -527 254 -568 44 -10 63 -10 96 0 87 26 184 163 231 326 30 104
32 296 4 395 -47 171 -141 280 -252 294 -22 3 -51 1 -65 -3z m174 -152 c41
-55 28 -172 -22 -198 -30 -16 -71 23 -81 78 -20 112 48 192 103 120z"/>
<path d="M3800 7361 c-51 -16 -88 -41 -137 -95 -91 -99 -129 -236 -120 -434 7
-178 48 -300 128 -387 55 -59 91 -78 154 -78 117 -1 212 98 260 269 26 93 31
321 11 425 -44 220 -163 340 -296 300z m160 -131 c57 -57 23 -218 -44 -208
-49 7 -84 115 -55 171 31 59 64 72 99 37z"/>
<path d="M6929 6473 c-32 -16 -86 -59 -136 -108 -89 -89 -103 -118 -103 -215
-1 -77 -16 -134 -56 -213 -19 -37 -34 -72 -34 -77 0 -23 21 -7 44 33 42 71 58
127 66 227 4 58 14 109 25 130 23 46 65 90 85 90 32 0 80 -77 80 -130 0 -16 5
-30 10 -30 18 0 11 82 -11 126 -11 24 -29 46 -40 49 -28 9 -24 17 29 52 117
77 159 82 175 18 3 -13 5 -10 6 12 2 66 -51 80 -140 36z"/>
<path d="M4457 6223 c-21 -21 8 -128 38 -139 26 -10 26 -1 4 67 -23 69 -31 83
-42 72z"/>
<path d="M5301 5584 c-95 -64 -255 -118 -456 -153 -100 -18 -105 -19 -54 -20
116 -2 359 53 462 105 68 34 117 72 117 90 0 21 -10 18 -69 -22z"/>
<path d="M4085 5569 c-20 -32 97 -101 227 -133 102 -26 265 -41 286 -28 8 6
-18 11 -70 15 -161 13 -320 64 -390 126 -39 34 -44 36 -53 20z"/>
<path d="M7432 10151 c-11 -6 -10 -10 0 -19 11 -8 14 -7 14 9 0 10 0 19 -1 19
0 0 -6 -4 -13 -9z"/>
<path d="M1215 10120 c-3 -6 1 -7 9 -4 18 7 21 14 7 14 -6 0 -13 -4 -16 -10z"/>
<path d="M7817 10099 c7 -7 15 -10 18 -7 3 3 -2 9 -12 12 -14 6 -15 5 -6 -5z"/>
<path d="M8436 10102 c-3 -5 1 -9 9 -9 8 0 12 4 9 9 -3 4 -7 8 -9 8 -2 0 -6
-4 -9 -8z"/>
<path d="M7680 10090 c-9 -6 -10 -10 -3 -10 6 0 15 5 18 10 8 12 4 12 -15 0z"/>
<path d="M8307 10089 c7 -7 15 -10 18 -7 3 3 -2 9 -12 12 -14 6 -15 5 -6 -5z"/>
<path d="M8490 10080 c0 -5 5 -10 11 -10 5 0 7 5 4 10 -3 6 -8 10 -11 10 -2 0
-4 -4 -4 -10z"/>
<path d="M8017 10059 c7 -7 15 -10 18 -7 3 3 -2 9 -12 12 -14 6 -15 5 -6 -5z"/>
<path d="M7785 10050 c-3 -5 -1 -10 4 -10 6 0 11 5 11 10 0 6 -2 10 -4 10 -3
0 -8 -4 -11 -10z"/>
<path d="M7895 10020 c3 -5 8 -10 11 -10 2 0 4 5 4 10 0 6 -5 10 -11 10 -5 0
-7 -4 -4 -10z"/>
<path d="M7472 9984 c-7 -8 -8 -14 -3 -14 10 0 25 19 20 25 -2 1 -10 -3 -17
-11z"/>
<path d="M7290 9946 c0 -2 7 -7 16 -10 8 -3 12 -2 9 4 -6 10 -25 14 -25 6z"/>
<path d="M7551 9933 c7 -12 15 -20 18 -17 3 2 -3 12 -13 22 -17 16 -18 16 -5
-5z"/>
<path d="M7810 9924 c0 -8 5 -12 10 -9 6 4 8 11 5 16 -9 14 -15 11 -15 -7z"/>
<path d="M7730 9890 c-9 -6 -10 -10 -3 -10 6 0 15 5 18 10 8 12 4 12 -15 0z"/>
<path d="M8159 9823 c-13 -16 -12 -17 4 -4 9 7 17 15 17 17 0 8 -8 3 -21 -13z"/>
<path d="M7767 9819 c7 -7 15 -10 18 -7 3 3 -2 9 -12 12 -14 6 -15 5 -6 -5z"/>
<path d="M7156 9812 c-3 -4 4 -9 15 -9 23 -2 25 3 4 10 -8 4 -16 3 -19 -1z"/>
<path d="M8120 9816 c0 -2 8 -10 18 -17 15 -13 16 -12 3 4 -13 16 -21 21 -21
13z"/>
<path d="M7810 9806 c0 -2 7 -7 16 -10 8 -3 12 -2 9 4 -6 10 -25 14 -25 6z"/>
<path d="M7200 9790 c0 -5 5 -10 11 -10 5 0 7 5 4 10 -3 6 -8 10 -11 10 -2 0
-4 -4 -4 -10z"/>
<path d="M7260 9766 c0 -2 8 -10 18 -17 15 -13 16 -12 3 4 -13 16 -21 21 -21
13z"/>
<path d="M7445 9760 c3 -5 8 -10 11 -10 2 0 4 5 4 10 0 6 -5 10 -11 10 -5 0
-7 -4 -4 -10z"/>
<path d="M7930 9729 c0 -5 5 -7 10 -4 6 3 10 8 10 11 0 2 -4 4 -10 4 -5 0 -10
-5 -10 -11z"/>
<path d="M13 9715 c0 -8 4 -12 9 -9 5 3 6 10 3 15 -9 13 -12 11 -12 -6z"/>
<path d="M7156 9692 c-3 -4 4 -9 15 -9 23 -2 25 3 4 10 -8 4 -16 3 -19 -1z"/>
<path d="M7590 9696 c0 -2 7 -7 16 -10 8 -3 12 -2 9 4 -6 10 -25 14 -25 6z"/>
<path d="M7935 9670 c-3 -5 -1 -10 4 -10 6 0 11 5 11 10 0 6 -2 10 -4 10 -3 0
-8 -4 -11 -10z"/>
<path d="M7440 9666 c0 -2 8 -10 18 -17 15 -13 16 -12 3 4 -13 16 -21 21 -21
13z"/>
<path d="M7643 9605 c0 -8 4 -12 9 -9 4 3 8 9 8 15 0 5 -4 9 -8 9 -5 0 -9 -7
-9 -15z"/>
<path d="M7678 9613 c7 -3 16 -2 19 1 4 3 -2 6 -13 5 -11 0 -14 -3 -6 -6z"/>
<path d="M7627 9569 c7 -7 15 -10 18 -7 3 3 -2 9 -12 12 -14 6 -15 5 -6 -5z"/>
<path d="M7270 9541 c0 -6 4 -13 10 -16 6 -3 7 1 4 9 -7 18 -14 21 -14 7z"/>
<path d="M7817 9525 c-4 -8 -3 -16 1 -19 4 -3 9 4 9 15 2 23 -3 25 -10 4z"/>
<path d="M7545 9470 c-3 -6 1 -7 9 -4 18 7 21 14 7 14 -6 0 -13 -4 -16 -10z"/>
<path d="M7380 9439 c0 -5 5 -7 10 -4 6 3 10 8 10 11 0 2 -4 4 -10 4 -5 0 -10
-5 -10 -11z"/>
<path d="M7132 9386 c7 -8 17 -12 22 -9 4 3 2 9 -5 14 -22 13 -31 11 -17 -5z"/>
<path d="M7680 9300 c-9 -6 -10 -10 -3 -10 6 0 15 5 18 10 8 12 4 12 -15 0z"/>
<path d="M7710 9256 c0 -2 8 -10 18 -17 15 -13 16 -12 3 4 -13 16 -21 21 -21
13z"/>
<path d="M600 6560 c-9 -6 -10 -10 -3 -10 6 0 15 5 18 10 8 12 4 12 -15 0z"/>
<path d="M9913 3725 c0 -8 4 -12 9 -9 5 3 6 10 3 15 -9 13 -12 11 -12 -6z"/>
<path d="M9493 3545 c0 -8 4 -12 9 -9 5 3 6 10 3 15 -9 13 -12 11 -12 -6z"/>
<path d="M9790 3416 c0 -2 8 -10 18 -17 15 -13 16 -12 3 4 -13 16 -21 21 -21
13z"/>
<path d="M9686 3307 c3 -10 9 -15 12 -12 3 3 0 11 -7 18 -10 9 -11 8 -5 -6z"/>
<path d="M8720 3231 c0 -6 4 -13 10 -16 6 -3 7 1 4 9 -7 18 -14 21 -14 7z"/>
<path d="M9280 3160 c0 -5 5 -10 11 -10 5 0 7 5 4 10 -3 6 -8 10 -11 10 -2 0
-4 -4 -4 -10z"/>
<path d="M9046 3135 c-3 -8 -1 -15 4 -15 6 0 10 7 10 15 0 8 -2 15 -4 15 -2 0
-6 -7 -10 -15z"/>
<path d="M8990 2789 c0 -5 5 -7 10 -4 6 3 10 8 10 11 0 2 -4 4 -10 4 -5 0 -10
-5 -10 -11z"/>
<path d="M8840 2760 c0 -5 5 -10 11 -10 5 0 7 5 4 10 -3 6 -8 10 -11 10 -2 0
-4 -4 -4 -10z"/>
<path d="M8546 2677 c3 -10 9 -15 12 -12 3 3 0 11 -7 18 -10 9 -11 8 -5 -6z"/>
<path d="M10205 89 c-4 -6 -5 -12 -2 -15 2 -3 7 2 10 11 7 17 1 20 -8 4z"/>
<path d="M10090 36 c7 -7 13 -7 20 0 6 6 3 10 -10 10 -13 0 -16 -4 -10 -10z"/>
</g>
</svg>
